<?xml version="1.0" encoding="utf-8"?>
<!-- Svg Vector Icons : http://www.onlinewebfonts.com/icon -->
<!DOCTYPE svg PUBLIC "-//W3C//DTD SVG 1.1//EN" "http://www.w3.org/Graphics/SVG/1.1/DTD/svg11.dtd">
<svg version="1.1" xmlns="http://www.w3.org/2000/svg" xmlns:xlink="http://www.w3.org/1999/xlink" x="0px" y="0px" viewBox="0 0 1000 1000" enable-background="new 0 0 1000 1000" xml:space="preserve">
<metadata> Svg Vector Icons : http://www.onlinewebfonts.com/icon </metadata>
<g><g transform="translate(0.000000,511.000000) scale(0.100000,-0.100000)"><path d="M4882.9,4749.4c-107.3-32.6-216.4-143.6-245.2-250.9c-15.3-49.8-21.1-1107-21.1-3376.6V-2182L3502-1067.3C2887.2-456.3,2356.7,60.8,2320.3,78c-101.5,51.7-283.5,32.6-375.4-36.4c-134.1-103.4-185.8-249-143.6-409.9c23-84.3,132.2-197.3,1492-1560.9c986.4-988.3,1492-1482.4,1545.6-1507.3c91.9-46,212.6-49.8,310.3-9.6c92,38.3,2955.3,2894,3016.6,3007c120.7,227.9-24.9,517.1-272,542c-216.4,21.1-132.1,91.9-1375.2-1151.1L5382.8-2182v3303.8c0,2269.6-5.7,3326.8-21.1,3376.6c-30.7,111.1-137.9,218.3-252.8,252.8S4996,4785.8,4882.9,4749.4z"/><path d="M431.8-1837.2c-9.6-3.8-42.1-11.5-72.8-17.2c-78.5-17.2-199.2-136-235.6-233.7c-59.4-157-1.9-597.6,124.5-944.2c279.6-764.2,965.3-1334.9,1792.7-1492c157.1-30.6,409.9-32.6,2959.1-32.6c2556.9,0,2800.1,1.9,2961,32.6c1074.5,204.9,1857.8,1080.2,1934.4,2166.2c15.3,206.8-3.8,289.2-93.8,388.8c-137.9,159-356.3,178.1-515.2,44c-97.7-78.5-130.2-162.8-149.4-398.4c-11.5-113-36.4-266.2-59.4-339c-136-444.3-448.2-802.5-865.7-994c-314.1-145.5-57.5-134.1-3211.9-134.1c-2685.2,0-2830.8,1.9-2949.5,34.5c-496.1,141.7-894.4,494.1-1078.3,955.7c-67,164.7-109.2,346.7-109.2,469.3c0,183.8-34.5,291.1-122.6,379.2C652.1-1864.1,508.5-1810.4,431.8-1837.2z"/></g></g>
</svg>