# Blender v3.0.1 OBJ File: 'gfcock3D_nooutlines.blend'
# www.blender.org
mtllib skin_grandfather_leftarm.mtl
o GFClock.007_Cube.004
v -0.002553 -0.284176 0.001419
v 0.131972 -0.284176 0.001419
v -0.002553 -0.002177 0.001419
v 0.131972 -0.002177 0.001419
v -0.002553 -0.284176 -0.001703
v 0.131972 -0.284176 -0.001703
v -0.002553 -0.002177 -0.001703
v 0.131972 -0.002177 -0.001703
vt 0.678544 0.445032
vt 0.808713 0.445032
vt 0.808713 0.554213
vt 0.678544 0.554213
vt 0.678544 0.445032
vt 0.808713 0.554213
vt 0.808713 0.445032
vt 0.678544 0.554213
vn -0.0000 0.0000 1.0000
vn -0.0000 0.0000 -1.0000
usemtl gfcock3dtex
s 1
f 3/1/1 1/2/1 2/3/1
f 3/1/1 2/3/1 4/4/1
f 7/5/2 6/6/2 5/7/2
f 7/5/2 8/8/2 6/6/2
