# Blender v3.0.1 OBJ File: 'batter3d_nooutlines.blend'
# www.blender.org
mtllib skin_batter_lefthand.mtl
o Batter_lefthand_Cube.006
v -0.017286 -0.220876 0.085439
v 0.106705 -0.220876 -0.085439
v -0.017286 -0.220876 -0.085439
v 0.106705 -0.220876 0.085439
v -0.046548 -0.206165 -0.125766
v 0.135967 -0.206165 0.125766
v -0.046548 -0.206165 0.125766
v 0.135967 -0.206165 -0.125766
v 0.044709 -0.306033 0.000000
v -0.000997 0.000153 -0.062990
v 0.090416 0.000153 -0.062990
v -0.000997 0.000153 0.062990
v 0.090416 0.000153 0.062990
v 0.106000 -0.282044 0.084468
v -0.016581 -0.282044 -0.084468
v 0.106000 -0.282044 -0.084468
v -0.016581 -0.282044 0.084468
vt 0.137310 0.872073
vt 0.126116 0.922033
vt 0.137310 0.922033
vt 0.137310 0.985944
vt 0.161303 0.922033
vt 0.161303 0.872073
vt 0.137310 0.817039
vt 0.126116 0.766134
vt 0.126116 0.817038
vt 0.081937 0.766134
vt 0.081937 0.817024
vt 0.126116 0.872073
vt 0.081937 0.985945
vt 0.027174 0.922033
vt 0.027174 0.985945
vt 0.081937 0.922033
vt 0.171815 0.872073
vt 0.161303 0.817042
vt 0.161303 0.766134
vt 0.137310 0.766134
vt 0.126116 0.985945
vt 0.161303 0.985944
vt 0.081937 0.872073
vn 0.4802 -0.7724 -0.4157
vn 0.6454 -0.3520 0.6779
vn 0.4802 -0.7724 0.4157
vn -0.4802 -0.7724 0.4157
vn 0.6008 -0.5209 0.6064
vn 0.6008 -0.5209 -0.6064
vn -0.4802 -0.7724 -0.4157
vn -0.6454 -0.3520 0.6779
vn -0.6454 -0.3520 -0.6779
vn -0.5158 0.7072 0.4835
vn -0.5158 0.7072 -0.4835
vn 0.6454 -0.3520 -0.6779
vn 0.5158 0.7072 -0.4835
vn 0.5158 0.7072 0.4835
vn -0.0000 -1.0000 0.0000
vn -0.6008 -0.5209 -0.6064
vn -0.6008 -0.5209 0.6064
usemtl frank3Dtex
s 1
f 2/1/1 6/2/2 4/3/3
f 1/4/4 14/5/5 4/3/3
f 16/6/6 4/3/3 14/5/5
f 3/7/7 7/8/8 5/9/9
f 5/9/9 12/10/10 10/11/11
f 3/7/7 8/12/12 2/1/1
f 12/13/10 11/14/13 10/15/11
f 8/12/12 13/16/14 6/2/2
f 9/17/15 16/6/6 14/5/5
f 15/18/16 9/17/15 17/19/17
f 15/18/16 1/20/4 3/7/7
f 9/17/15 15/18/16 16/6/6
f 7/21/8 13/16/14 12/13/10
f 17/22/17 9/17/15 14/5/5
f 10/11/11 8/12/12 5/9/9
f 1/4/4 6/2/2 7/21/8
f 16/6/6 3/7/7 2/1/1
f 2/1/1 8/12/12 6/2/2
f 1/4/4 17/22/17 14/5/5
f 16/6/6 2/1/1 4/3/3
f 3/7/7 1/20/4 7/8/8
f 5/9/9 7/8/8 12/10/10
f 3/7/7 5/9/9 8/12/12
f 12/13/10 13/16/14 11/14/13
f 8/12/12 11/23/13 13/16/14
f 15/18/16 17/19/17 1/20/4
f 7/21/8 6/2/2 13/16/14
f 10/11/11 11/23/13 8/12/12
f 1/4/4 4/3/3 6/2/2
f 16/6/6 15/18/16 3/7/7
o Batter_bat_Cube.008
v 0.727650 -0.384322 0.076964
v -0.115686 -0.318822 0.013620
v 0.727650 -0.384322 -0.089812
v -0.115686 -0.318822 -0.026468
v 0.727650 -0.190918 0.076964
v -0.115686 -0.256418 0.013620
v 0.727650 -0.190918 -0.089812
v -0.115686 -0.256418 -0.026468
v 0.755446 -0.287620 -0.006424
vt 0.070045 0.310101
vt 0.053549 0.026915
vt 0.053549 0.026915
vt 0.070045 0.310101
vt 0.102257 0.026915
vt 0.085761 0.310101
vt 0.102257 0.026915
vt 0.085761 0.310101
vt 0.077903 0.017581
vn -0.6172 -0.5559 0.5568
vn 0.4742 -0.6246 -0.6204
vn 0.4742 -0.6246 0.6204
vn -0.6172 -0.5559 -0.5568
vn 0.4742 0.6246 -0.6204
vn -0.6172 0.5559 -0.5568
vn 0.4742 0.6246 0.6204
vn -0.6172 0.5559 0.5568
vn 1.0000 -0.0000 0.0000
usemtl frank3Dtex
s 1
f 19/24/18 20/25/19 18/26/20
f 21/27/21 24/28/22 20/25/19
f 25/29/23 22/30/24 24/28/22
f 23/31/25 18/26/20 22/30/24
f 24/28/22 22/30/24 26/32/26
f 21/27/21 23/31/25 25/29/23
f 22/30/24 18/26/20 26/32/26
f 20/25/19 24/28/22 26/32/26
f 18/26/20 20/25/19 26/32/26
f 19/24/18 21/27/21 20/25/19
f 21/27/21 25/29/23 24/28/22
f 25/29/23 23/31/25 22/30/24
f 23/31/25 19/24/18 18/26/20
f 21/27/21 19/24/18 23/31/25
